<?xml version="1.0" encoding="UTF-8"?>
<svg id="Layer_2" data-name="Layer 2" xmlns="http://www.w3.org/2000/svg" viewBox="0 0 237.65 255.96">
  <defs>
    <style>
      .cls-1 {
        fill: #e6e7e8;
        font-family: HelveticaNeue-CondensedBlack, 'Helvetica Neue';
        font-size: 60px;
        font-weight: 800;
      }

      .cls-2 {
        fill: #1c75bc;
      }
    </style>
  </defs>
  <g id="Layer_1-2" data-name="Layer 1">
    <path class="cls-2" d="M66.17,174.75v50.69C29.24,224.79.01,216.22.01,205.74v-48.59c3.42,9.06,28.73,16.28,60.88,17.46h.02c1.03.04,2.07.07,3.11.1h.01c.71,0,1.42.03,2.14.04Z"/>
    <path class="cls-2" d="M56.41,164.49C26.42,162.84,3.27,155.88.01,147.24v-1.82c.03.62.15,1.22.38,1.82,3.24,8.59,26.22,15.53,56.02,17.25Z"/>
    <path class="cls-2" d="M141.37,25.93v57.77c0,10.9-31.64,19.73-70.68,19.73S.01,94.6.01,83.7V25.93C.01,36.83,31.65,45.67,70.69,45.67s70.68-8.84,70.68-19.74Z"/>
    <path class="cls-2" d="M141.37,90.63v57.77c0,.19,0,.38-.03.57h-63.17c-6.6,0-12,5.4-12,12v7.12c-.72,0-1.43-.03-2.14-.04h-.01c-1.04-.03-2.08-.06-3.11-.1h-.02c-1.51-.06-3-.13-4.48-.21-29.8-1.72-52.78-8.66-56.02-17.25-.23-.6-.35-1.2-.38-1.82v-1.43c3.26,8.64,26.41,15.6,56.4,17.25-29.8-1.72-52.78-8.66-56.02-17.25-.23-.6-.35-1.2-.38-1.82v-54.79c0,10.9,31.64,19.73,70.68,19.73s70.68-8.83,70.68-19.73Z"/>
    <path class="cls-2" d="M56.41,164.49C26.42,162.84,3.27,155.88.01,147.24v-1.82c.03.62.15,1.22.38,1.82,3.24,8.59,26.22,15.53,56.02,17.25Z"/>
    <path class="cls-2" d="M.01,144.89v.53c-.01-.09-.01-.18-.01-.27s0-.17.01-.26Z"/>
    <ellipse class="cls-2" cx="70.69" cy="19.74" rx="70.68" ry="19.74"/>
    <rect class="cls-2" x="74.41" y="154.95" width="163.24" height="101" rx="5.85" ry="5.85"/>
    <text class="cls-1" transform="translate(106.28 225.44)"><tspan x="0" y="0">SQL</tspan></text>
  </g>
</svg>