<?xml version="1.0" encoding="UTF-8"?>
<svg id="Layer_2" data-name="Layer 2" xmlns="http://www.w3.org/2000/svg" viewBox="0 0 244.17 253.33">
  <defs>
    <style>
      .cls-1 {
        fill: #2b3990;
      }

      .cls-2 {
        fill: #73c4ee;
      }

      .cls-3 {
        fill: #3850a2;
      }

      .cls-4 {
        fill: #1c75bc;
      }

      .cls-5 {
        fill: #27aae1;
      }
    </style>
  </defs>
  <g id="Layer_1-2" data-name="Layer 1">
    <path class="cls-1" d="M77.92,182.71h-.01c-1.27-.03-2.53-.06-3.78-.1h-.02c-36.77-1.11-66.18-7.55-73.04-15.85-.25.28-.6.48-1.04.55v46.42c0,10.48,35.57,19.05,80.51,19.7v-50.69c-.88-.01-1.74-.03-2.6-.04ZM6.72,204.84c0,1.67-2.59,1.67-2.59,0v-23.58c0-1.67,2.59-1.67,2.59,0v23.58Z"/>
    <path class="cls-5" d="M171.95,31.64c-.25,0-.48-.05-.68-.12-5.53,9.68-41.57,17.15-85.25,17.15S5.3,40.98.55,31.11c-.13.03-.27.04-.42.04-.04,0-.08,0-.12-.01v55.55c0,10.9,38.5,19.73,86.01,19.73s86.01-8.83,86.01-19.73V31.63s-.05,0-.08,0ZM6.72,78.27c.07,1.67-2.52,1.66-2.59,0-.47-10.74,0-21.5,0-32.24,0-1.67,2.59-1.67,2.59,0,0,10.75-.47,21.5,0,32.24ZM86.29,85.37c-9.28,0-9.26-14.4,0-14.4s9.26,14.4,0,14.4Z"/>
    <path class="cls-4" d="M171.12,99.96c-6.02,9.55-41.82,16.88-85.1,16.88C40.58,116.84,3.41,108.76.26,98.52c-.04,0-.08.01-.12.01s-.08,0-.12-.01v53.38c.04.62.18,1.22.46,1.82,3.94,8.59,31.91,15.53,68.17,17.25C32.15,169.32,3.98,162.36.01,153.72v1.43c.04.62.18,1.22.46,1.82,3.94,8.59,31.91,15.53,68.17,17.25,1.8.08,3.61.15,5.45.21h.02c1.25.04,2.52.07,3.78.1h.01c.86.01,1.73.03,2.6.04v-7.12c0-6.6,6.57-12,14.6-12h76.87c.02-.19.04-.38.04-.57v-54.46c-.37-.07-.67-.24-.9-.46ZM6.72,142.76c0,1.67-2.59,1.67-2.59,0v-26.47c0-1.67,2.59-1.67,2.59,0v26.47ZM86.72,151.9c-9.28,0-9.26-14.4,0-14.4s9.26,14.4,0,14.4Z"/>
    <path class="cls-4" d="M.01,152.89v.53c-.01-.09-.01-.18-.01-.27s0-.17.01-.26Z"/>
    <ellipse class="cls-2" cx="86.02" cy="19.74" rx="86.01" ry="19.74"/>
    <path class="cls-3" d="M238.31,162.95H94.66c-3.23,0-5.85,2.62-5.85,5.85v78.66c0,3.23,2.62,5.85,5.85,5.85h143.66c3.23,0,5.85-2.62,5.85-5.85v-78.66c0-3.23-2.62-5.85-5.85-5.85ZM114.17,175.57c-2.17,0-4.34,0-6.5.16-.42.03-.84.09-1.26.13-.05,0-.1.01-.16.02-.17.03-.34.06-.51.09-.66.12-1.31.28-1.94.5-.07.03-.41.17-.44.18-.05.02-.09.04-.1.05-.25.13-.5.27-.74.43-.1.06-.16.11-.2.15.03-.03.07-.06.15-.13-.1.09-.22.18-.32.27-.23.2-.42.44-.63.65,0,0,0,0-.01.01-.01.02-.02.03-.03.05-.08.12-.17.25-.24.37-.16.27-.3.54-.44.82-.02.03-.02.05-.03.07,0,.02-.01.04-.03.07-.06.16-.12.32-.17.49-.12.38-.23.76-.32,1.15-.1.43-.17.85-.25,1.28,0,.03-.01.09-.02.13,0,.05-.01.09-.02.14-.03.23-.05.46-.07.69-.1,1.11-.13,2.23-.14,3.35,0,2.76-4.28,2.75-4.28,0,0-2.48.14-5.05.83-7.44.97-3.36,3.17-5.83,6.5-6.95,3.58-1.21,7.66-1.01,11.39-1.01,2.76,0,2.75,4.28,0,4.28ZM150.76,222.95c-1.43,5.45-6.16,8.85-11.35,10.37-11.2,3.28-24.89-2.58-22.08-15.93,1.1-5.2,9.05-2.99,7.96,2.19-1.51,7.17,8.54,7.21,13.07,5.41,7.45-2.94,4.63-10.64-1.47-13.16-7.36-3.04-20.62-5.84-19.38-16.57,1.74-15,29.85-18.38,31.46-1.35.5,5.29-7.75,5.24-8.25,0-.6-6.35-11.64-2.32-14.03.56-1.94,2.34-.38,3.71,1.99,5.27,4.95,3.25,11.22,3.54,16.08,7.02,5.01,3.59,7.59,10.12,6,16.18ZM189.81,236.79c-4.04-1.39-7.6-3.58-11.31-5.59-.68.55-1.41,1.05-2.21,1.46-3.55,1.86-7.21,1.41-10.48-.28-.34.55-.68,1.16-1.02,1.83-2.4,4.74-9.52.56-7.12-4.16.53-1.05,1.12-2.05,1.76-3-1.58-1.93-2.84-4.06-3.62-6.09-3.94-10.19.32-20.79,2.95-30.89-.2-1.08,0-2.26.8-3.33.03-.13.06-.26.09-.39.39-1.85,1.64-2.75,3.05-2.92,3.44-3.06,7.73-5.2,12.43-4.75,5.86.56,10.32,5.4,12.21,10.74,2.53,7.18,1.36,16.11-.07,23.38-.73,3.71-1.83,8.02-3.7,11.8,2.75,1.59,5.48,3.22,8.46,4.24,5,1.72,2.84,9.69-2.19,7.96ZM196.35,225.92c-2.72-5.53-1.86-12.75-1.72-18.67.18-7.97.64-15.93.68-23.9.02-5.32,8.28-5.31,8.25,0-.06,11.73-2.1,24.23-.6,35.89,1.03,8.06,10.54,6.4,16.6,6.38,5.32-.02,5.31,8.24,0,8.25-8.26.02-18.91.78-23.21-7.95ZM239.33,238.04c-.57,3.2-2.21,6.1-5,7.85-3.14,1.97-7.13,2.29-10.75,2.3-1.16,0-2.14-.98-2.14-2.14s.98-2.14,2.14-2.14c1.11,0,2.22-.04,3.32-.15.24-.02.47-.05.71-.08-.47.05.1-.02.28-.05.43-.07.85-.15,1.27-.25.39-.09.78-.2,1.16-.33.14-.04.27-.09.41-.14.08-.03.32-.14.37-.16.5-.24.98-.49,1.44-.81.03-.02.06-.04.09-.07.1-.09.21-.18.31-.27.21-.2.42-.4.61-.62.05-.05.09-.1.12-.15.09-.14.08-.11,0,0-.02.03-.03.05-.06.09.08-.12.17-.24.25-.36.16-.25.32-.51.45-.77.08-.15.14-.31.22-.46,0-.02.02-.04.02-.06.11-.31.22-.61.31-.93.11-.38.2-.76.28-1.15.03-.15.06-.3.08-.46.01-.06.03-.26.05-.37.16-1.75.19-3.49.09-5.25-.07-1.16,1.03-2.14,2.14-2.14,1.2,0,2.07.99,2.14,2.14.13,2.31.09,4.63-.31,6.92Z"/>
    <path class="cls-3" d="M165.4,221.4c2.32-1.22,5.01-1.71,8.11-1.12.88.17,1.74.4,2.57.68.26-.57.49-1.1.68-1.55,2.87-6.73,3.88-14.66,3.57-21.92-.14-3.33-.58-6.32-2.86-8.79-3.38-3.66-7.48-1.04-10.38,1.93-2.39,9.2-7.83,20.8-2.61,29.43.24.39.55.85.91,1.34Z"/>
  </g>
</svg>